<svg width="40" height="40" viewBox="0 0 40 40" fill="none" xmlns="http://www.w3.org/2000/svg">
<circle opacity="0.12" cx="20" cy="20" r="19.5" stroke="#888A8F"/>
<circle cx="34" cy="6" r="6" fill="white"/>
<circle cx="34" cy="6" r="4" fill="#E54D43"/>
<path fill-rule="evenodd" clip-rule="evenodd" d="M19.0015 11C19.0015 10.4477 19.4492 10 20.0015 10C20.5538 10 21.0015 10.4477 21.0015 11V12C21.0015 12.0277 21.0004 12.0552 20.9982 12.0824C23.8375 12.5571 26.0015 15.0258 26.0015 18V19.9574C26.0015 20.3881 26.1575 20.8042 26.4405 21.1289L27.0849 21.8682C29.1717 24.2623 27.4714 28 24.2955 28H22.001C22.001 29.1046 21.1056 30 20.001 30C18.8964 30 18.001 29.1046 18.001 28H15.7076C12.5317 28 10.8313 24.2623 12.9181 21.8682L13.5626 21.1289C13.8456 20.8042 14.0015 20.3881 14.0015 19.9574V18C14.0015 15.0259 16.1655 12.5571 19.0048 12.0824C19.0026 12.0552 19.0015 12.0278 19.0015 12V11ZM20.0015 14C17.7924 14 16.0015 15.7909 16.0015 18V19.9574C16.0015 20.8712 15.6707 21.7542 15.0702 22.443L14.4258 23.1824C13.4669 24.2825 14.2482 26 15.7076 26H24.2955C25.7549 26 26.5362 24.2825 25.5773 23.1824L24.9328 22.443C24.3323 21.7542 24.0015 20.8712 24.0015 19.9574V18C24.0015 15.7909 22.2107 14 20.0015 14Z" fill="#888A8F"/>
</svg>
