<svg width="24" height="24" viewBox="0 0 24 24" fill="none" xmlns="http://www.w3.org/2000/svg">
<path fill-rule="evenodd" clip-rule="evenodd" d="M3.16402 6.68493C3.36978 5.49156 4.05138 4.53428 4.78556 3.80011C5.95861 2.62708 7.89902 2.76651 8.89232 4.09519L10.5138 6.26415C11.4067 7.45849 11.2868 9.12732 10.2324 10.1818L10.1212 10.2929C9.73064 10.6834 9.73064 11.3166 10.1212 11.7071L12.2928 13.8787C12.6833 14.2692 13.3165 14.2692 13.707 13.8787L13.8182 13.7675C14.8726 12.7131 16.5414 12.5932 17.7358 13.4861L19.9211 15.1197C21.2412 16.1066 21.3797 18.0345 20.2142 19.1999C19.4719 19.9422 18.5041 20.6349 17.2961 20.8435C15.072 21.2275 10.8092 21.2235 6.79273 17.2071C2.77446 13.1889 2.78149 8.90351 3.16402 6.68493ZM6.19976 5.21434C5.62363 5.79045 5.24403 6.39204 5.13494 7.02476C4.82645 8.8139 4.78117 12.3671 8.20695 15.7929C11.6344 19.2203 15.1678 19.1814 16.9558 18.8727C17.6007 18.7613 18.2127 18.373 18.8 17.7857C19.1039 17.4817 19.0678 16.979 18.7235 16.7216L16.5382 15.0879C16.1401 14.7903 15.5839 14.8303 15.2324 15.1817L15.1212 15.2929C13.9496 16.4645 12.0501 16.4645 10.8786 15.2929L8.70695 13.1213C7.53538 11.9498 7.53537 10.0503 8.70695 8.8787L8.81811 8.76754C9.16959 8.41606 9.20955 7.85978 8.91193 7.46167L7.29046 5.29271C7.02665 4.93982 6.5113 4.9028 6.19976 5.21434Z" fill="#5FC7D1"/>
</svg>
